Coordinates
version=1
nRows=17
nColumns=34
inDegrees=yes

Units are S.I. units (second, meters, Newtons, ...)
If the header above contains a line with 'inDegrees', this indicates whether rotational values are in degrees (yes) or radians (no).

endheader
time	pelvis_tilt	pelvis_list	pelvis_rotation	pelvis_tx	pelvis_ty	pelvis_tz	hip_flexion_r	hip_adduction_r	hip_rotation_r	knee_angle_r	ankle_angle_r	subtalar_angle_r	mtp_angle_r	hip_flexion_l	hip_adduction_l	hip_rotation_l	knee_angle_l	ankle_angle_l	subtalar_angle_l	mtp_angle_l	lumbar_extension	lumbar_bending	lumbar_rotation	arm_flex_r	arm_add_r	arm_rot_r	elbow_flex_r	pro_sup_r	arm_flex_l	arm_add_l	arm_rot_l	elbow_flex_l	pro_sup_l
      0.00000000	     27.94821948	      6.30617733	     -3.40692932	     -0.32077955	      0.52326399	      0.11126027	     72.82101682	      8.11618949	     -0.53071171	     43.68191485	    -18.01760719	    -28.54474514	      0.00000000	     64.01127262	     -8.09814180	     -8.25483294	    139.99979294	     36.06361104	    -26.75564150	      0.00000000	    -51.63630075	      0.40866171	     10.82707612	     37.48660413	    -52.58626036	     30.88885792	     69.10969883	     75.65445054	    107.79139827	     -7.82670992	     48.01254015	     77.94253081	     73.56644317
      0.01666670	     16.88328859	      8.75625431	     -1.34384061	     -0.31463788	      0.51519631	      0.11181946	     79.76968082	      6.76882460	      3.72466626	     41.81443366	     -7.68868466	    -12.45557983	      0.00000000	     67.47040383	     -4.59561665	    -13.32926454	    134.59285926	     42.95040776	    -12.77870618	      0.00000000	    -43.93453185	      0.30608952	     11.36958906	     39.31114764	    -53.29639243	     27.60654181	     71.64811737	     76.05729434	    111.76770459	     -6.22146369	     50.52999102	     79.39838800	     74.83216622
      0.03333330	     10.92148490	      8.82001708	      2.90245070	     -0.29987402	      0.50523081	      0.10926701	     87.79181270	      2.24686640	      1.14128692	     47.70735272	     -5.94645354	     -6.01335441	      0.00000000	     73.53539675	     -2.04059533	    -12.63323182	    135.41690071	     44.11273804	    -11.50788536	      0.00000000	    -39.69077589	      0.92793515	     15.42787085	     27.21091323	    -58.83874146	     11.60573834	     76.59769228	     78.85885377	    115.25303773	      3.69318043	     46.75557067	     72.77612168	     81.44247548
      0.05000000	     11.88487913	      9.66971613	      4.70572770	     -0.29637969	      0.50961855	      0.10851773	     88.34952873	      0.37249860	      1.17771961	     49.47755357	     -6.00262929	     -8.18190503	      0.00000000	     73.58356339	     -1.05676132	    -13.02719102	    136.82569632	     43.30904040	    -10.55479471	      0.00000000	    -41.50618673	      1.05931362	     15.57738216	     32.72213003	    -61.38440522	     14.60438197	     75.57443857	     79.57714958	    120.70724162	      5.69461490	     48.44181998	     67.69576069	     82.17040438
      0.06666670	     11.96904969	      9.73426409	      6.16872458	     -0.29075495	      0.51448598	      0.10845808	     87.92070946	     -0.90566259	      0.78984410	     51.06744176	     -5.76158589	     -9.14356417	      0.00000000	     72.91359172	     -0.90708350	    -11.22834196	    136.55535520	     40.42379740	     -9.95514927	      0.00000000	    -41.27809467	      2.54244602	     14.81698768	     44.13467008	    -61.08869748	     25.45597279	     71.25474131	     80.41568844	    121.81933862	      4.82602579	     48.52850151	     66.87395878	     82.17550344
      0.08333330	     11.98280206	     10.19213526	      6.93176795	     -0.30115167	      0.50902479	      0.10743179	     88.64778351	     -1.46679580	      1.64788312	     51.74796969	     -6.48387376	    -11.11784989	      0.00000000	     73.98560607	     -0.24027598	    -11.60262207	    137.44606909	     39.19999725	    -10.88581395	      0.00000000	    -42.47596450	      2.10828545	     16.45636893	     48.93080203	    -63.35778865	     26.98972996	     71.10776723	     80.37286966	    126.15794837	      6.78230026	     48.96655757	     64.13248241	     82.01309096
      0.10000000	     14.23315329	     10.56544933	      6.81892939	     -0.31473651	      0.51148488	      0.12014021	     86.11065480	     -0.82632683	      2.26895599	     50.53845561	     -7.95664815	    -10.98610535	      0.00000000	     73.25777574	     -1.00216193	    -11.24742764	    137.71274271	     36.94283108	     -9.86368232	      0.00000000	    -46.21979366	      2.31723116	     14.14551490	     69.75679424	    -58.68014219	     46.66855529	     63.89198864	     77.56445797	    131.97582567	      3.13262310	     54.06053789	     62.45480346	     78.07695031
      0.11666670	     14.55543170	     10.91081032	      6.29957346	     -0.31875924	      0.51364416	      0.12187739	     84.65749695	     -0.14398727	      3.35492576	     48.08775636	    -10.06216113	    -12.18151256	      0.00000000	     73.31706061	     -1.89278122	    -11.55947621	    137.40086862	     36.63453992	     -8.49074355	      0.00000000	    -48.63147807	      1.21396261	     15.73616130	     77.47613846	    -59.13247083	     51.40779270	     62.30943737	     76.97701915	    137.08239285	      4.29031579	     55.41699216	     59.26099668	     77.01559017
      0.13333330	     14.20031247	     10.94864728	      6.12538091	     -0.30450401	      0.51464031	      0.12028102	     84.98649577	      0.16630731	      3.30815220	     48.27472636	    -10.36261939	    -11.63568971	      0.00000000	     73.54710370	     -2.37083524	    -11.28334942	    137.30725095	     35.78871905	     -7.90614522	      0.00000000	    -49.46290020	      1.22945517	     16.24413633	     85.16318143	    -57.39565588	     57.92514761	     59.31353711	     75.29856846	    139.67460135	      3.13006905	     56.17798854	     59.10230716	     75.24205275
      0.15000000	     13.47564702	     11.00987136	      6.06788417	     -0.30736258	      0.51907174	      0.12077142	     84.86469676	      0.45411248	      4.06456458	     47.66275370	    -11.11409455	    -13.12303577	      0.00000000	     73.16774262	     -2.39504244	    -12.06399476	    136.80414680	     37.21696719	     -6.43387357	      0.00000000	    -50.23053782	      1.29281338	     16.75435447	     90.98167669	    -55.44856495	     61.69021900	     56.62260223	     73.13808849	    141.99313637	      2.06655705	     56.33517360	     60.21791552	     74.14241237
      0.16666670	     12.25286806	     10.91837447	      6.45789448	     -0.30316909	      0.51629440	      0.12168452	     86.04531601	      0.20977710	      4.22124665	     47.63355793	    -11.34054064	    -13.07696408	      0.00000000	     73.67640429	     -2.31509037	    -11.74978708	    136.84537478	     37.54465784	     -5.91999831	      0.00000000	    -50.14669936	      1.21720673	     17.87693435	     93.04183858	    -55.40270099	     60.92937009	     55.72446599	     72.85704054	    143.69107294	      2.60600688	     56.02991430	     59.92722205	     74.06857847
      0.18333330	     12.18794319	     10.89761119	      6.68259665	     -0.30432871	      0.51139326	      0.12256121	     86.37841353	      0.23113002	      4.45991708	     48.02003131	    -11.17775652	    -13.51865157	      0.00000000	     74.48999860	     -2.52375861	    -11.52861734	    137.21317930	     36.93284333	     -5.19010852	      0.00000000	    -51.48445768	      1.02231161	     18.05415222	     97.36278526	    -54.04903349	     62.97847365	     53.77363871	     71.53382116	    147.84685269	      3.14530949	     58.40921606	     57.13500426	     73.72967397
      0.20000000	     10.80724735	     10.75894722	      6.63186365	     -0.29292113	      0.50939845	      0.12085000	     87.98247037	      0.31010923	      4.14580204	     48.72609332	    -10.73080365	    -13.39050989	      0.00000000	     76.55559329	     -3.41778643	    -10.84791878	    137.71604913	     35.64446030	     -4.69826349	      0.00000000	    -51.00366435	      0.91532127	     19.16644713	     99.32788015	    -53.77065315	     62.43419722	     53.03503745	     71.24417734	    149.33756562	      3.11711239	     58.23751959	     56.96788653	     73.62161401
      0.21666670	      9.34175873	     10.56995725	      6.77237876	     -0.29221054	      0.50719097	      0.12151325	     90.01311813	      0.38282586	      3.94685109	     49.37285789	    -11.21973717	    -13.97209591	      0.00000000	     78.29401564	     -4.00195252	    -10.68955361	    137.13765943	     37.03591064	     -2.09734809	      0.00000000	    -50.46302605	      0.93252686	     20.06645260	    101.55260948	    -53.13603445	     62.71918095	     51.96114588	     70.57649010	    151.14045838	      3.37632521	     58.65136218	     56.32746829	     73.39684833
      0.23333330	      6.96559147	     10.33392827	      6.89260918	     -0.27592513	      0.50678646	      0.11488920	     92.98377074	      0.22847312	      3.64821380	     50.95332736	    -10.69198874	    -13.90236266	      0.00000000	     79.52912725	     -3.99799234	    -10.31456127	    137.26588017	     37.83647871	     -1.73012287	      0.00000000	    -48.51918596	      1.02861514	     21.37071761	    102.69469213	    -53.09413392	     62.81709200	     50.38497300	     69.96180491	    151.59145195	      3.76455022	     58.50780841	     56.82948071	     73.20218970
      0.25000000	      5.33405368	     10.28869782	      7.70708759	     -0.27988482	      0.50132542	      0.11581342	     95.42051433	     -0.26044040	      3.68602371	     52.14614144	    -10.84357204	    -14.83960058	      0.00000000	     80.15298245	     -3.09391439	    -10.63424464	    137.94593342	     38.63574956	     -1.68972634	      0.00000000	    -47.75718308	      1.59812117	     21.77097550	    104.98588316	    -51.85412980	     63.28539779	     47.85223294	     67.98276156	    151.92309356	      4.06901032	     56.82524010	     57.22484674	     72.72131584
      0.26666670	      4.72839410	     10.12715292	      8.53169931	     -0.27825716	      0.48963060	      0.11690741	     97.19784142	     -0.41859937	      4.54066062	     53.55208755	    -10.58302205	    -15.81626835	      0.00000000	     81.24059005	     -2.30320246	    -10.14899627	    139.61712024	     39.32923445	     -1.69052204	      0.00000000	    -48.09898303	      2.07662835	     21.59926389	    107.79517672	    -50.79784055	     64.83822399	     46.80157533	     65.50474094	    154.47344159	      4.45645179	     58.27342533	     55.33329444	     72.42795819
